<svg enable-background="new 0 0 330 330" viewBox="0 0 330 330" fill="#FFFFFF" xmlns="http://www.w3.org/2000/svg"><path d="m165 0c-90.981 0-165 74.019-165 165s74.019 165 165 165 165-74.019 165-165-74.019-165-165-165zm0 300c-74.439 0-135-60.561-135-135s60.561-135 135-135 135 60.561 135 135-60.561 135-135 135z"/><path d="m205.306 205.305c-22.226 22.224-58.386 22.225-80.611.001-5.857-5.858-15.355-5.858-21.213 0s-5.858 15.355 0 21.213c16.963 16.963 39.236 25.441 61.519 25.441 22.276 0 44.56-8.482 61.519-25.441 5.858-5.857 5.858-15.355 0-21.213-5.859-5.859-15.357-5.858-21.214-.001z"/><path d="m115.14 147.14c3.73-3.72 5.86-8.88 5.86-14.14s-2.13-10.42-5.86-14.14c-3.72-3.72-8.88-5.86-14.14-5.86-5.271 0-10.42 2.14-14.141 5.86-3.729 3.72-5.859 8.88-5.859 14.14s2.13 10.42 5.859 14.14c3.721 3.73 8.881 5.86 14.141 5.86s10.42-2.13 14.14-5.86z"/><path d="m229 113c-5.26 0-10.42 2.14-14.141 5.86-3.719 3.72-5.859 8.87-5.859 14.14s2.14 10.42 5.859 14.14c3.721 3.73 8.881 5.86 14.141 5.86s10.42-2.13 14.14-5.86c3.72-3.72 5.86-8.87 5.86-14.14 0-5.26-2.141-10.42-5.86-14.14-3.72-3.72-8.88-5.86-14.14-5.86z"/></svg>